<svg xmlns:dc="http://purl.org/dc/elements/1.1/" xmlns:cc="http://creativecommons.org/ns#" xmlns:rdf="http://www.w3.org/1999/02/22-rdf-syntax-ns#" xmlns:svg="http://www.w3.org/2000/svg" xmlns="http://www.w3.org/2000/svg" viewBox="0 0 20 20" fill="none"><metadata><rdf:RDF><cc:Work><dc:format>image/svg+xml</dc:format><dc:type rdf:resource="http://purl.org/dc/dcmitype/StillImage"/><dc:title>Pixel Art</dc:title><dc:creator><cc:Agent><dc:title>Plastic Jam</dc:title></cc:Agent></dc:creator><cc:license rdf:resource="https://github.com/dicebear/dicebear/blob/main/packages/%40dicebear/pixel-art/LICENSE"/></cc:Work></rdf:RDF></metadata><mask id="avatarsRadiusMask"><rect width="20" height="20" rx="0" ry="0" x="0" y="0" fill="#fff"/></mask><g mask="url(#avatarsRadiusMask)"><path d="M6 4V3h8v1h1v1h1v3h1v3h-1v2h-1v1h-1v1h-2v1h4v1h1v3H3v-3h1v-1h4v-1H6v-1H5v-1H4v-2H3V8h1V5h1V4h1Z" fill="rgba(203, 158, 110, 1)"/><path d="M6 3v1H5v1H4v3H3v3h1v2h1v1h1v1h8v-1h1v-1h1v-2h1V8h-1V5h-1V4h-1V3H6Z" fill="#fff" fill-opacity=".1"/><g/><g><g fill-rule="evenodd" clip-rule="evenodd"><path d="M6 7h1v1h1v1H6V7Zm6 0h1v1h1v1h-2V7Z" fill="#fff"/><path d="M6 8h1v1H6V8Zm6 0h1v1h-1V8Z" fill="#000"/></g></g><g><g fill-rule="evenodd" clip-rule="evenodd"><path d="M4 7V5h3v1H5v1H4Zm12-2v2h-1V6h-2V5h3Z" fill="rgba(202, 177, 136, 1)"/><path d="M4 7V5h3v1H5v1H4Zm12-2v2h-1V6h-2V5h3Z" fill="#000" fill-opacity=".1"/></g></g><g><path d="M11 12v1H9v1H8v-1h1v-1h2Z" fill="rgba(222, 15, 13, 1)"/></g><g><path fill-rule="evenodd" clip-rule="evenodd" d="M3 11v3H2v2H1v1h1v-1h1v-1h1v-1h1v-1H4v-2H3Zm14 0v3h1v2h1v1h-1v-1h-1v-1h-1v-1h-1v-1h1v-2h1Zm-1-3h1V4h-1V3h-1V2H5v1H4v1H3v4h1V7h1V6h1V5h8v1h1v1h1v1Z" fill="rgba(202, 177, 136, 1)"/></g><g/><g><g fill-rule="evenodd" clip-rule="evenodd"><path opacity=".2" d="M5 8h3v1H5V8Zm7 0h3v1h-3V8Z" fill="#fff"/><path opacity=".2" d="M7 8h1v1H7V8Zm7 0h1v1h-1V8Z" fill="#fff"/><path d="M5 8v1h3V8H5ZM3 7v1h1v1h1v1h3V9h1V8h2v1h1v1h3V9h1V8h1V7H3Zm9 1v1h3V8h-3Z" fill="rgba(50, 50, 50, 1)"/><path d="M3 7v1h1V7H3Zm6 0v1h2V7H9Zm7 0v1h1V7h-1Z" fill="#fff" fill-opacity=".2"/></g></g><g/><g><path d="M5 16H4v1H3v3h14v-3h-1v-1h-3v1H7v-1H5Z" fill="rgba(68, 197, 133, 1)"/><path d="M10 20v-1h3v1h-3Z" fill="#fff" fill-opacity=".5"/><path fill-rule="evenodd" clip-rule="evenodd" d="M5 16H4v1H3v3h1v-1h1v-3Zm1 0h1v1h6v-1h1v2H6v-2Zm9 0h1v1h1v3h-1v-1h-1v-3Z" fill="#fff" fill-opacity=".8"/></g></g></svg>